REM DIRINDEX 1\2,1\3,1\4,1\5,1\6
REM DIRNAME cjc030,folder01,folder02,folder03,folder04,folder05
TITLE ""
FILE "Disc2Track45.mp3" MP3
  TRACK 01 AUDIO
    TITLE "3:cjc030_03404"
    INDEX 01 00:00:00
  TRACK 02 AUDIO
    TITLE "0:"
    INDEX 01 00:01:11
  TRACK 03 AUDIO
    TITLE "4:cjc030_03405"
    INDEX 01 00:01:19
  TRACK 04 AUDIO
    TITLE "0:"
    INDEX 01 00:02:43
  TRACK 05 AUDIO
    TITLE "5:cjc030_03406"
    INDEX 01 00:02:53
  TRACK 06 AUDIO
    TITLE "0:"
    INDEX 01 00:03:64
  TRACK 07 AUDIO
    TITLE "6:cjc030_03407"
    INDEX 01 00:04:03
  TRACK 08 AUDIO
    TITLE "0:"
    INDEX 01 00:08:13
  TRACK 09 AUDIO
    TITLE "3:cjc030_03408"
    INDEX 01 00:08:60
  TRACK 10 AUDIO
    TITLE "0:"
    INDEX 01 00:10:23
  TRACK 11 AUDIO
    TITLE "4:cjc030_03409"
    INDEX 01 00:10:31
  TRACK 12 AUDIO
    TITLE "0:"
    INDEX 01 00:12:03
  TRACK 13 AUDIO
    TITLE "5:cjc030_03410"
    INDEX 01 00:12:12
  TRACK 14 AUDIO
    TITLE "0:"
    INDEX 01 00:13:49
  TRACK 15 AUDIO
    TITLE "6:cjc030_03411"
    INDEX 01 00:13:63
  TRACK 16 AUDIO
    TITLE "0:"
    INDEX 01 00:18:50
  TRACK 17 AUDIO
    TITLE "3:cjc030_03412"
    INDEX 01 00:19:22
  TRACK 18 AUDIO
    TITLE "0:"
    INDEX 01 00:20:39
  TRACK 19 AUDIO
    TITLE "4:cjc030_03413"
    INDEX 01 00:20:49
  TRACK 20 AUDIO
    TITLE "0:"
    INDEX 01 00:22:32
  TRACK 21 AUDIO
    TITLE "5:cjc030_03414"
    INDEX 01 00:22:40
  TRACK 22 AUDIO
    TITLE "0:"
    INDEX 01 00:23:59
  TRACK 23 AUDIO
    TITLE "6:cjc030_03415"
    INDEX 01 00:23:71
  TRACK 24 AUDIO
    TITLE "0:"
    INDEX 01 00:25:66
  TRACK 25 AUDIO
    TITLE "3:cjc030_03416"
    INDEX 01 00:26:40
  TRACK 26 AUDIO
    TITLE "0:"
    INDEX 01 00:27:47
  TRACK 27 AUDIO
    TITLE "4:cjc030_03417"
    INDEX 01 00:27:55
  TRACK 28 AUDIO
    TITLE "0:"
    INDEX 01 00:31:18
  TRACK 29 AUDIO
    TITLE "5:cjc030_03418"
    INDEX 01 00:31:24
  TRACK 30 AUDIO
    TITLE "0:"
    INDEX 01 00:32:31
  TRACK 31 AUDIO
    TITLE "6:cjc030_03419"
    INDEX 01 00:32:45
  TRACK 32 AUDIO
    TITLE "0:"
    INDEX 01 00:37:69
  TRACK 33 AUDIO
    TITLE "3:cjc030_03420"
    INDEX 01 00:38:43
  TRACK 34 AUDIO
    TITLE "0:"
    INDEX 01 00:39:52
  TRACK 35 AUDIO
    TITLE "4:cjc030_03421"
    INDEX 01 00:39:60
  TRACK 36 AUDIO
    TITLE "0:"
    INDEX 01 00:41:22
  TRACK 37 AUDIO
    TITLE "5:cjc030_03422"
    INDEX 01 00:41:28
  TRACK 38 AUDIO
    TITLE "0:"
    INDEX 01 00:42:37
  TRACK 39 AUDIO
    TITLE "6:cjc030_03423"
    INDEX 01 00:42:51
  TRACK 40 AUDIO
    TITLE "0:"
    INDEX 01 00:45:61
  TRACK 41 AUDIO
    TITLE "3:cjc030_03424"
    INDEX 01 00:46:33
  TRACK 42 AUDIO
    TITLE "0:"
    INDEX 01 00:48:30
  TRACK 43 AUDIO
    TITLE "4:cjc030_03425"
    INDEX 01 00:48:40
  TRACK 44 AUDIO
    TITLE "0:"
    INDEX 01 00:52:26
  TRACK 45 AUDIO
    TITLE "5:cjc030_03426"
    INDEX 01 00:52:36
  TRACK 46 AUDIO
    TITLE "0:"
    INDEX 01 00:54:32
  TRACK 47 AUDIO
    TITLE "6:cjc030_03427"
    INDEX 01 00:54:44
  TRACK 48 AUDIO
    TITLE "0:"
    INDEX 01 00:59:73
  TRACK 49 AUDIO
    TITLE "6:cjc030_03428"
    INDEX 01 01:00:33
  TRACK 50 AUDIO
    TITLE "0:"
    INDEX 01 01:03:69
  TRACK 51 AUDIO
    TITLE "3:cjc030_03429"
    INDEX 01 01:04:45
  TRACK 52 AUDIO
    TITLE "0:"
    INDEX 01 01:05:56
  TRACK 53 AUDIO
    TITLE "4:cjc030_03430"
    INDEX 01 01:05:68
  TRACK 54 AUDIO
    TITLE "0:"
    INDEX 01 01:07:29
  TRACK 55 AUDIO
    TITLE "5:cjc030_03431"
    INDEX 01 01:07:37
  TRACK 56 AUDIO
    TITLE "0:"
    INDEX 01 01:08:48
  TRACK 57 AUDIO
    TITLE "3:cjc030_03432"
    INDEX 01 01:09:32
  TRACK 58 AUDIO
    TITLE "0:"
    INDEX 01 01:10:49
  TRACK 59 AUDIO
    TITLE "4:cjc030_03433"
    INDEX 01 01:10:57
  TRACK 60 AUDIO
    TITLE "0:"
    INDEX 01 01:12:70
  TRACK 61 AUDIO
    TITLE "5:cjc030_03434"
    INDEX 01 01:13:02
  TRACK 62 AUDIO
    TITLE "0:"
    INDEX 01 01:14:21
  TRACK 63 AUDIO
    TITLE "6:cjc030_03435"
    INDEX 01 01:14:33
  TRACK 64 AUDIO
    TITLE "0:"
    INDEX 01 01:19:25
